<?xml version="1.0" encoding="UTF-8" standalone="no"?><!-- Generator: Gravit.io --><svg xmlns="http://www.w3.org/2000/svg" xmlns:xlink="http://www.w3.org/1999/xlink" style="isolation:isolate" viewBox="0 0 294 294" width="294pt" height="294pt"><defs><clipPath id="_clipPath_EBO2EVk8lDgrluV6o824ylm9fwk0mfEk"><rect width="294" height="294"/></clipPath></defs><g clip-path="url(#_clipPath_EBO2EVk8lDgrluV6o824ylm9fwk0mfEk)"><g><path d=" M 94.149 138.483 L 200.301 138.483 L 200.301 21.686 L 94.149 21.686 L 94.149 138.483 Z " fill="rgb(154,26,36)"/><path d=" M 200.471 26.2 L 93.98 26.2 C 90.896 26.2 88.396 23.7 88.396 20.616 L 88.396 14.103 C 88.396 6.673 94.419 0.651 101.848 0.651 L 192.603 0.651 C 200.032 0.651 206.055 6.673 206.055 14.103 L 206.055 20.616 C 206.055 23.7 203.555 26.2 200.471 26.2 Z " fill="rgb(199,201,199)"/><path d=" M 194.909 287.904 L 99.541 287.904 C 96.564 287.904 94.149 285.489 94.149 282.512 L 94.149 138.483 L 200.301 138.483 L 200.301 282.512 C 200.301 285.489 197.887 287.904 194.909 287.904 Z " fill="rgb(28,28,29)"/><path d=" M 139.66 14.656 L 101.18 14.656 C 97.297 14.656 94.149 17.804 94.149 21.687 L 94.149 79.433 C 94.149 83.316 97.297 86.464 101.18 86.464 L 139.66 86.464 C 143.543 86.464 146.691 83.316 146.691 79.433 L 146.691 21.687 C 146.691 17.804 143.543 14.656 139.66 14.656 Z " fill="rgb(238,43,55)"/><path d=" M 193.173 14.656 L 153.819 14.656 C 149.883 14.656 146.691 17.847 146.691 21.784 L 146.691 79.336 C 146.691 83.273 149.883 86.464 153.819 86.464 L 193.173 86.464 C 197.111 86.464 200.301 83.273 200.301 79.336 L 200.301 21.784 C 200.301 17.847 197.111 14.656 193.173 14.656 Z " fill="rgb(238,43,55)"/><path d=" M 139.66 181.587 L 101.18 181.587 C 97.297 181.587 94.149 184.735 94.149 188.619 L 94.149 246.364 C 94.149 250.248 97.297 253.396 101.18 253.396 L 139.66 253.396 C 143.543 253.396 146.691 250.248 146.691 246.364 L 146.691 188.619 C 146.691 184.735 143.543 181.587 139.66 181.587 Z " fill="rgb(238,43,55)"/><path d=" M 193.173 181.587 L 153.819 181.587 C 149.883 181.587 146.691 184.779 146.691 188.715 L 146.691 246.268 C 146.691 250.204 149.883 253.396 153.819 253.396 L 193.173 253.396 C 197.111 253.396 200.301 250.204 200.301 246.268 L 200.301 188.715 C 200.301 184.779 197.111 181.587 193.173 181.587 Z " fill="rgb(238,43,55)"/><path d=" M 192.072 138.477 L 102.379 138.477 L 102.379 75.144 L 113.936 86.464 L 180.515 86.464 L 192.072 75.144 L 192.072 138.477 Z " fill="rgb(216,36,48)"/><path d=" M 178.116 138.477 L 116.335 138.477 C 115.011 138.477 113.936 137.404 113.936 136.079 L 113.936 88.863 C 113.936 87.539 115.011 86.464 116.335 86.464 L 178.116 86.464 C 179.44 86.464 180.515 87.539 180.515 88.863 L 180.515 136.079 C 180.515 137.404 179.44 138.477 178.116 138.477 Z " fill="rgb(238,43,55)"/><path d=" M 102.379 75.144 L 192.072 75.144 L 180.515 86.464 L 113.936 86.464 L 102.379 75.144" fill="rgb(238,43,55)"/><path d=" M 105.156 75.863 L 189.293 75.863 L 178.452 84.996 L 115.999 84.996 L 105.156 75.863" fill="rgb(49,186,172)"/><path d=" M 166.352 14.815 L 157.817 11.705 C 150.631 9.087 142.751 9.087 135.564 11.705 L 127.029 14.815 C 123.409 16.135 120.599 19.047 119.408 22.711 L 102.379 75.144 L 146.691 75.144 L 192.072 75.144 L 173.973 22.711 C 172.783 19.047 169.972 16.135 166.352 14.815 Z " fill="rgb(238,43,55)"/><path d=" M 135.564 11.705 C 135.587 11.697 135.608 11.689 135.631 11.681 C 135.608 11.689 135.587 11.697 135.564 11.705 Z " fill="rgb(176,178,176)"/><path d=" M 147.327 75.144 L 102.379 75.144 L 119.408 22.711 C 120.599 19.047 123.409 16.135 127.029 14.815 L 135.564 11.705 L 135.564 11.705 C 135.587 11.697 135.608 11.689 135.631 11.681 C 139.197 10.389 142.935 9.763 146.672 9.763 C 146.891 9.763 147.109 9.764 147.327 9.768 L 147.327 75.144" fill="rgb(221,36,49)"/><path d=" M 119.408 29.875 C 120.599 26.209 123.409 23.297 127.029 21.979 L 135.564 18.868 C 142.751 16.249 150.631 16.249 157.817 18.868 L 166.352 21.979 C 169.972 23.297 172.783 26.209 173.973 29.875 L 188.812 75.144 L 192.072 75.144 L 173.973 20.431 C 172.783 16.765 169.972 13.853 166.352 12.533 L 157.817 9.424 C 150.631 6.805 142.751 6.805 135.564 9.424 L 127.029 12.533 C 123.409 13.853 120.599 16.765 119.408 20.431 L 102.435 75.144 L 105.503 75.144 L 119.408 29.875" fill="rgb(216,36,48)"/><path d=" M 103.793 80.429 L 111.293 88.1 L 111.293 130.461 L 103.793 130.461 L 103.793 80.429 Z " fill="rgb(49,186,172)"/><path d=" M 190.183 80.429 L 182.683 88.1 L 182.683 130.461 L 190.183 130.461 L 190.183 80.429 Z " fill="rgb(49,186,172)"/><path d=" M 102.379 279.259 L 192.072 279.259 L 192.072 138.477 L 102.379 138.477 L 102.379 279.259 Z " fill="rgb(216,36,48)"/><path d=" M 169.96 279.259 L 124.491 279.259 L 124.491 138.477 L 169.96 138.477 L 169.96 279.259 Z " fill="rgb(154,26,36)"/><path d=" M 100.548 29.619 L 100.548 21.119 C 100.548 20.105 101.369 19.285 102.381 19.285 L 109.603 19.285 C 110.616 19.285 111.436 20.105 111.436 21.119 L 111.436 29.619 C 111.436 32.625 108.999 35.063 105.992 35.063 C 102.985 35.063 100.548 32.625 100.548 29.619 Z " fill="rgb(216,36,48)"/><path d=" M 100.548 22.684 L 100.548 20.873 C 100.548 19.996 101.259 19.285 102.136 19.285 L 109.848 19.285 C 110.725 19.285 111.436 19.996 111.436 20.873 L 111.436 22.684 L 100.548 22.684 Z " fill="rgb(199,201,199)"/><path d=" M 182.199 29.619 L 182.199 21.119 C 182.199 20.105 183.02 19.285 184.033 19.285 L 191.255 19.285 C 192.267 19.285 193.088 20.105 193.088 21.119 L 193.088 29.619 C 193.088 32.625 190.651 35.063 187.644 35.063 L 187.644 35.063 C 184.637 35.063 182.199 32.625 182.199 29.619 Z " fill="rgb(216,36,48)"/><path d=" M 182.199 22.684 L 182.199 20.873 C 182.199 19.996 182.911 19.285 183.787 19.285 L 191.5 19.285 C 192.377 19.285 193.088 19.996 193.088 20.873 L 193.088 22.684 L 182.199 22.684 Z " fill="rgb(199,201,199)"/><path d=" M 169.96 270.759 L 124.491 270.759 L 124.491 279.259 L 169.96 279.259 L 169.96 270.759 Z " fill="rgb(216,36,48)"/><path d=" M 145.68 198.365 L 145.68 192.141 L 148.931 192.141 L 148.931 201.616 C 147.136 201.616 145.68 200.16 145.68 198.365 Z " fill="rgb(216,36,48)"/><path d=" M 155.543 200.337 L 155.543 200.337 C 155.543 201.044 154.971 201.616 154.265 201.616 L 148.236 201.616 C 146.824 201.616 145.68 200.472 145.68 199.06 L 154.265 199.06 C 154.971 199.06 155.543 199.632 155.543 200.337 Z " fill="rgb(216,36,48)"/><path d=" M 152.709 205.755 L 152.709 201.255 C 152.709 200.748 153.12 200.337 153.627 200.337 C 154.132 200.337 154.543 200.748 154.543 201.255 L 154.543 205.755 C 154.543 206.261 154.132 206.671 153.627 206.671 C 153.12 206.671 152.709 206.261 152.709 205.755 Z " fill="rgb(28,28,29)"/><path d=" M 136.431 146.664 L 136.431 147.625 L 134.568 147.625 L 134.568 146.664 L 136.431 146.664 Z " fill="rgb(252,210,13)"/><path d=" M 134.073 146.169 C 134.636 146.169 135.092 146.625 135.092 147.188 C 135.092 147.751 134.636 148.208 134.073 148.208 C 133.509 148.208 133.053 147.751 133.053 147.188 C 133.053 146.625 133.509 146.169 134.073 146.169 Z " fill="rgb(252,210,13)"/><path d=" M 158.02 147.712 L 158.02 146.752 L 159.883 146.752 L 159.883 147.712 L 158.02 147.712 Z " fill="rgb(252,210,13)"/><path d=" M 135.951 147.188 L 135.951 147.188 C 135.951 146.288 136.68 145.557 137.581 145.557 L 157.029 145.557 C 157.931 145.557 158.66 146.288 158.66 147.188 C 158.66 148.089 157.931 148.819 157.029 148.819 L 137.581 148.819 C 136.68 148.819 135.951 148.089 135.951 147.188 Z " fill="rgb(251,190,12)"/><path d=" M 153.041 148.208 C 152.479 148.208 152.021 147.751 152.021 147.188 C 152.021 146.625 152.479 146.169 153.041 146.169 C 153.604 146.169 154.06 146.625 154.06 147.188 C 154.06 147.751 153.604 148.208 153.041 148.208 Z " fill="rgb(252,210,13)"/><path d=" M 144.455 148.208 C 143.892 148.208 143.436 147.751 143.436 147.188 C 143.436 146.625 143.892 146.169 144.455 146.169 C 145.017 146.169 145.475 146.625 145.475 147.188 C 145.475 147.751 145.017 148.208 144.455 148.208 Z " fill="rgb(252,210,13)"/><path d=" M 160.377 148.208 C 159.815 148.208 159.359 147.751 159.359 147.188 C 159.359 146.625 159.815 146.169 160.377 146.169 C 160.94 146.169 161.397 146.625 161.397 147.188 C 161.397 147.751 160.94 148.208 160.377 148.208 Z " fill="rgb(252,210,13)"/><path d=" M 136.431 191.035 L 136.431 190.073 L 134.568 190.073 L 134.568 191.035 L 136.431 191.035 Z " fill="rgb(252,210,13)"/><path d=" M 134.073 191.529 C 134.636 191.529 135.092 191.073 135.092 190.511 C 135.092 189.948 134.636 189.492 134.073 189.492 C 133.509 189.492 133.053 189.948 133.053 190.511 C 133.053 191.073 133.509 191.529 134.073 191.529 Z " fill="rgb(252,210,13)"/><path d=" M 158.02 189.987 L 158.02 190.947 L 159.883 190.947 L 159.883 189.987 L 158.02 189.987 Z " fill="rgb(252,210,13)"/><path d=" M 135.951 190.511 L 135.951 190.511 C 135.951 191.411 136.68 192.141 137.581 192.141 L 157.029 192.141 C 157.931 192.141 158.66 191.411 158.66 190.511 C 158.66 189.611 157.931 188.88 157.029 188.88 L 137.581 188.88 C 136.68 188.88 135.951 189.611 135.951 190.511 Z " fill="rgb(251,190,12)"/><path d=" M 153.041 189.492 C 152.479 189.492 152.021 189.948 152.021 190.511 C 152.021 191.073 152.479 191.529 153.041 191.529 C 153.604 191.529 154.06 191.073 154.06 190.511 C 154.06 189.948 153.604 189.492 153.041 189.492 Z " fill="rgb(252,210,13)"/><path d=" M 144.455 189.492 C 143.892 189.492 143.436 189.948 143.436 190.511 C 143.436 191.073 143.892 191.529 144.455 191.529 C 145.017 191.529 145.475 191.073 145.475 190.511 C 145.475 189.948 145.017 189.492 144.455 189.492 Z " fill="rgb(252,210,13)"/><path d=" M 160.377 189.492 C 159.815 189.492 159.359 189.948 159.359 190.511 C 159.359 191.073 159.815 191.529 160.377 191.529 C 160.94 191.529 161.397 191.073 161.397 190.511 C 161.397 189.948 160.94 189.492 160.377 189.492 Z " fill="rgb(252,210,13)"/><path d=" M 137.291 150.64 L 137.291 150.64 C 137.291 149.635 138.105 148.819 139.111 148.819 L 155.5 148.819 C 156.505 148.819 157.32 149.635 157.32 150.64 L 157.32 150.64 C 157.32 151.645 156.505 152.461 155.5 152.461 L 139.111 152.461 C 138.105 152.461 137.291 151.645 137.291 150.64 Z " fill="rgb(216,36,48)"/><path d=" M 137.291 154.281 L 137.291 154.281 C 137.291 153.276 138.105 152.461 139.111 152.461 L 155.5 152.461 C 156.505 152.461 157.32 153.276 157.32 154.281 C 157.32 155.288 156.505 156.103 155.5 156.103 L 139.111 156.103 C 138.105 156.103 137.291 155.288 137.291 154.281 Z " fill="rgb(238,43,55)"/><path d=" M 137.291 157.924 L 137.291 157.924 C 137.291 156.917 138.105 156.103 139.111 156.103 L 155.5 156.103 C 156.505 156.103 157.32 156.917 157.32 157.924 C 157.32 158.929 156.505 159.744 155.5 159.744 L 139.111 159.744 C 138.105 159.744 137.291 158.929 137.291 157.924 Z " fill="rgb(216,36,48)"/><path d=" M 137.291 161.565 L 137.291 161.565 C 137.291 160.56 138.105 159.744 139.111 159.744 L 155.5 159.744 C 156.505 159.744 157.32 160.56 157.32 161.565 C 157.32 162.571 156.505 163.387 155.5 163.387 L 139.111 163.387 C 138.105 163.387 137.291 162.571 137.291 161.565 Z " fill="rgb(238,43,55)"/><path d=" M 137.291 165.208 L 137.291 165.208 C 137.291 164.201 138.105 163.387 139.111 163.387 L 155.5 163.387 C 156.505 163.387 157.32 164.201 157.32 165.208 C 157.32 166.213 156.505 167.028 155.5 167.028 L 139.111 167.028 C 138.105 167.028 137.291 166.213 137.291 165.208 Z " fill="rgb(216,36,48)"/><path d=" M 137.291 168.849 L 137.291 168.849 C 137.291 167.844 138.105 167.028 139.111 167.028 L 155.5 167.028 C 156.505 167.028 157.32 167.844 157.32 168.849 L 157.32 168.849 C 157.32 169.855 156.505 170.671 155.5 170.671 L 139.111 170.671 C 138.105 170.671 137.291 169.855 137.291 168.849 Z " fill="rgb(238,43,55)"/><path d=" M 137.291 172.492 L 137.291 172.492 C 137.291 171.485 138.105 170.671 139.111 170.671 L 155.5 170.671 C 156.505 170.671 157.32 171.485 157.32 172.492 C 157.32 173.497 156.505 174.312 155.5 174.312 L 139.111 174.312 C 138.105 174.312 137.291 173.497 137.291 172.492 Z " fill="rgb(216,36,48)"/><path d=" M 137.291 176.133 L 137.291 176.133 C 137.291 175.128 138.105 174.312 139.111 174.312 L 155.5 174.312 C 156.505 174.312 157.32 175.128 157.32 176.133 C 157.32 177.139 156.505 177.955 155.5 177.955 L 139.111 177.955 C 138.105 177.955 137.291 177.139 137.291 176.133 Z " fill="rgb(238,43,55)"/><path d=" M 137.291 179.775 L 137.291 179.775 C 137.291 178.769 138.105 177.955 139.111 177.955 L 155.5 177.955 C 156.505 177.955 157.32 178.769 157.32 179.775 C 157.32 180.781 156.505 181.596 155.5 181.596 L 139.111 181.596 C 138.105 181.596 137.291 180.781 137.291 179.775 Z " fill="rgb(216,36,48)"/><path d=" M 137.291 183.417 L 137.291 183.417 C 137.291 182.412 138.105 181.596 139.111 181.596 L 155.5 181.596 C 156.505 181.596 157.32 182.412 157.32 183.417 C 157.32 184.423 156.505 185.239 155.5 185.239 L 139.111 185.239 C 138.105 185.239 137.291 184.423 137.291 183.417 Z " fill="rgb(238,43,55)"/><path d=" M 137.291 187.059 L 137.291 187.059 C 137.291 186.053 138.105 185.239 139.111 185.239 L 155.5 185.239 C 156.505 185.239 157.32 186.053 157.32 187.059 C 157.32 188.065 156.505 188.88 155.5 188.88 L 139.111 188.88 C 138.105 188.88 137.291 188.065 137.291 187.059 Z " fill="rgb(216,36,48)"/><path d=" M 145.68 141.808 L 145.68 145.557 L 148.931 145.557 L 148.931 141.808 C 148.931 140.911 148.203 140.183 147.305 140.183 C 146.408 140.183 145.68 140.911 145.68 141.808 Z " fill="rgb(216,36,48)"/><path d=" M 89.405 202.921 L 102.379 202.921 L 102.379 197.584 L 89.405 197.584 L 89.405 202.921 Z " fill="rgb(238,43,55)"/><path d=" M 89.405 265 L 102.379 265 L 102.379 259.661 L 89.405 259.661 L 89.405 265 Z " fill="rgb(238,43,55)"/><path d=" M 91.857 276.467 L 100.401 276.467 L 100.401 186.116 L 91.857 186.116 L 91.857 276.467 Z " fill="rgb(28,28,29)"/><path d=" M 90.22 188.717 L 90.22 185.296 C 90.22 184.712 90.693 184.239 91.277 184.239 L 101.321 184.239 C 101.905 184.239 102.379 184.712 102.379 185.296 L 102.379 188.717 C 102.379 189.301 101.905 189.775 101.321 189.775 L 91.277 189.775 C 90.693 189.775 90.22 189.301 90.22 188.717 Z " fill="rgb(252,210,13)"/><path d=" M 91.857 194.321 L 91.857 189.775 L 100.401 189.775 L 100.401 194.321 L 91.857 194.321 Z " fill="rgb(234,160,17)"/><path d=" M 102.008 277.548 L 102.008 280.969 C 102.008 281.553 101.535 282.027 100.951 282.027 L 90.907 282.027 C 90.323 282.027 89.849 281.553 89.849 280.969 L 89.849 277.548 C 89.849 276.964 90.323 276.491 90.907 276.491 L 100.951 276.491 C 101.535 276.491 102.008 276.964 102.008 277.548 Z " fill="rgb(252,210,13)"/><path d=" M 100.371 271.944 L 100.371 276.491 L 91.827 276.491 L 91.827 271.944 L 100.371 271.944 Z " fill="rgb(234,160,17)"/><path d=" M 100.371 282.027 L 100.371 289.077 C 100.371 291.437 98.459 293.349 96.099 293.349 C 93.739 293.349 91.827 291.437 91.827 289.077 L 91.827 282.027 L 100.371 282.027 Z " fill="rgb(234,160,17)"/><path d=" M 98.691 291.128 C 98.299 291.128 97.983 290.811 97.983 290.419 L 97.983 286.223 C 98.521 285.989 99.003 285.648 99.399 285.225 L 99.399 290.419 C 99.399 290.811 99.081 291.128 98.691 291.128 Z " fill="rgb(235,169,15)"/><path d=" M 92.043 276.467 L 100.586 276.467 L 100.586 186.116 L 92.043 186.116 L 92.043 276.467 Z " fill="rgb(28,28,29)"/><path d=" M 99.256 270.759 C 98.865 270.759 98.548 270.441 98.548 270.051 L 98.548 196 C 98.548 195.609 98.865 195.292 99.256 195.292 C 99.648 195.292 99.964 195.609 99.964 196 L 99.964 270.051 C 99.964 270.441 99.648 270.759 99.256 270.759 Z " fill="rgb(48,49,51)"/><path d=" M 90.405 188.717 L 90.405 185.296 C 90.405 184.712 90.879 184.239 91.463 184.239 L 101.507 184.239 C 102.091 184.239 102.564 184.712 102.564 185.296 L 102.564 188.717 C 102.564 189.301 102.091 189.775 101.507 189.775 L 91.463 189.775 C 90.879 189.775 90.405 189.301 90.405 188.717 Z " fill="rgb(252,210,13)"/><path d=" M 92.043 194.321 L 92.043 189.775 L 100.587 189.775 L 100.587 194.321 L 92.043 194.321 Z " fill="rgb(234,160,17)"/><path d=" M 102.193 277.548 L 102.193 280.969 C 102.193 281.553 101.72 282.027 101.136 282.027 L 91.092 282.027 C 90.508 282.027 90.035 281.553 90.035 280.969 L 90.035 277.548 C 90.035 276.964 90.508 276.491 91.092 276.491 L 101.136 276.491 C 101.72 276.491 102.193 276.964 102.193 277.548 Z " fill="rgb(252,210,13)"/><path d=" M 100.556 271.944 L 100.556 276.491 L 92.012 276.491 L 92.012 271.944 L 100.556 271.944 Z " fill="rgb(234,160,17)"/><path d=" M 100.556 282.027 L 100.556 282.301 C 100.556 284.661 98.644 286.573 96.284 286.573 C 93.925 286.573 92.012 284.661 92.012 282.301 L 92.012 282.027 L 100.556 282.027 Z " fill="rgb(251,190,12)"/><path d=" M 98.089 285.072 C 97.445 285.072 96.923 284.549 96.923 283.905 C 96.923 283.261 97.445 282.739 98.089 282.739 C 98.733 282.739 99.256 283.261 99.256 283.905 C 99.256 284.549 98.733 285.072 98.089 285.072 Z " fill="rgb(251,197,24)"/><path d=" M 192.072 202.921 L 205.216 202.921 L 205.216 197.584 L 192.072 197.584 L 192.072 202.921 Z " fill="rgb(238,43,55)"/><path d=" M 192.063 265 L 205.216 265 L 205.216 259.661 L 192.063 259.661 L 192.063 265 Z " fill="rgb(238,43,55)"/><path d=" M 194.065 276.467 L 202.61 276.467 L 202.61 186.116 L 194.065 186.116 L 194.065 276.467 Z " fill="rgb(28,28,29)"/><path d=" M 192.428 188.717 L 192.428 185.296 C 192.428 184.712 192.901 184.239 193.485 184.239 L 203.529 184.239 C 204.113 184.239 204.587 184.712 204.587 185.296 L 204.587 188.717 C 204.587 189.301 204.113 189.775 203.529 189.775 L 193.485 189.775 C 192.901 189.775 192.428 189.301 192.428 188.717 Z " fill="rgb(252,210,13)"/><path d=" M 194.065 194.321 L 194.065 189.775 L 202.609 189.775 L 202.609 194.321 L 194.065 194.321 Z " fill="rgb(234,160,17)"/><path d=" M 204.216 277.548 L 204.216 280.969 C 204.216 281.553 203.743 282.027 203.159 282.027 L 193.115 282.027 C 192.531 282.027 192.057 281.553 192.057 280.969 L 192.057 277.548 C 192.057 276.964 192.531 276.491 193.115 276.491 L 203.159 276.491 C 203.743 276.491 204.216 276.964 204.216 277.548 Z " fill="rgb(252,210,13)"/><path d=" M 202.579 271.944 L 202.579 276.491 L 194.035 276.491 L 194.035 271.944 L 202.579 271.944 Z " fill="rgb(234,160,17)"/><path d=" M 202.579 282.027 L 202.579 289.077 C 202.579 291.437 200.665 293.349 198.307 293.349 L 198.307 293.349 C 195.947 293.349 194.035 291.437 194.035 289.077 L 194.035 282.027 L 202.579 282.027 Z " fill="rgb(234,160,17)"/><path d=" M 200.899 291.128 C 200.507 291.128 200.189 290.811 200.189 290.419 L 200.189 286.223 C 200.728 285.989 201.209 285.648 201.607 285.225 L 201.607 290.419 C 201.607 290.811 201.289 291.128 200.899 291.128 Z " fill="rgb(235,169,15)"/><path d=" M 194.251 276.467 L 202.794 276.467 L 202.794 186.116 L 194.251 186.116 L 194.251 276.467 Z " fill="rgb(28,28,29)"/><path d=" M 201.464 270.759 C 201.073 270.759 200.756 270.441 200.756 270.051 L 200.756 196 C 200.756 195.609 201.073 195.292 201.464 195.292 C 201.855 195.292 202.172 195.609 202.172 196 L 202.172 270.051 C 202.172 270.441 201.855 270.759 201.464 270.759 Z " fill="rgb(48,49,51)"/><path d=" M 192.613 188.717 L 192.613 185.296 C 192.613 184.712 193.087 184.239 193.671 184.239 L 203.715 184.239 C 204.299 184.239 204.772 184.712 204.772 185.296 L 204.772 188.717 C 204.772 189.301 204.299 189.775 203.715 189.775 L 193.671 189.775 C 193.087 189.775 192.613 189.301 192.613 188.717 Z " fill="rgb(252,210,13)"/><path d=" M 194.251 194.321 L 194.251 189.775 L 202.795 189.775 L 202.795 194.321 L 194.251 194.321 Z " fill="rgb(234,160,17)"/><path d=" M 204.401 277.548 L 204.401 280.969 C 204.401 281.553 203.928 282.027 203.344 282.027 L 193.3 282.027 C 192.716 282.027 192.243 281.553 192.243 280.969 L 192.243 277.548 C 192.243 276.964 192.716 276.491 193.3 276.491 L 203.344 276.491 C 203.928 276.491 204.401 276.964 204.401 277.548 Z " fill="rgb(252,210,13)"/><path d=" M 202.764 271.944 L 202.764 276.491 L 194.22 276.491 L 194.22 271.944 L 202.764 271.944 Z " fill="rgb(234,160,17)"/><path d=" M 202.764 282.027 L 202.764 282.301 C 202.764 284.661 200.852 286.573 198.492 286.573 C 196.132 286.573 194.22 284.661 194.22 282.301 L 194.22 282.027 L 202.764 282.027 Z " fill="rgb(251,190,12)"/><path d=" M 200.297 285.072 C 199.653 285.072 199.131 284.549 199.131 283.905 C 199.131 283.261 199.653 282.739 200.297 282.739 C 200.941 282.739 201.464 283.261 201.464 283.905 C 201.464 284.549 200.941 285.072 200.297 285.072 Z " fill="rgb(251,197,24)"/><path d=" M 196.729 281.117 L 196.729 136.261 C 196.729 134.972 195.685 133.928 194.396 133.928 C 193.108 133.928 192.063 134.972 192.063 136.261 L 192.063 143.872 L 192.063 148.539 L 192.063 162.832 L 192.063 167.499 L 192.063 181.653 L 192.063 186.32 L 192.063 200.612 L 192.063 205.279 L 192.063 219.572 L 192.063 224.239 L 192.063 238.532 L 192.063 243.199 L 192.063 257.492 L 192.063 262.159 L 192.063 276.451 L 192.063 281.117 L 192.063 289.539 C 192.063 290.828 193.108 291.872 194.396 291.872 C 195.685 291.872 196.729 290.828 196.729 289.539 L 196.729 281.117" fill="rgb(154,26,36)"/><path d=" M 102.379 153.183 L 99.505 153.183 L 99.505 146.169 L 102.379 146.169 L 102.379 153.183 Z " fill="rgb(252,210,13)"/><path d=" M 102.379 174.177 L 99.505 174.177 L 99.505 167.164 L 102.379 167.164 L 102.379 174.177 Z " fill="rgb(252,210,13)"/><path d=" M 102.379 163.095 L 100.683 163.095 L 100.683 158.127 L 102.379 158.127 L 102.379 163.095 Z " fill="rgb(252,210,13)"/><path d=" M 196.729 167.164 L 199.604 167.164 L 199.604 174.177 L 196.729 174.177 L 196.729 167.164 Z " fill="rgb(252,210,13)"/><path d=" M 196.729 146.169 L 199.604 146.169 L 199.604 153.183 L 196.729 153.183 L 196.729 146.169 Z " fill="rgb(252,210,13)"/><path d=" M 137.533 279.295 L 137.533 282.168 L 130.52 282.168 L 130.52 279.295 L 137.533 279.295 Z " fill="rgb(252,210,13)"/><path d=" M 164.7 279.295 L 164.7 282.168 L 157.687 282.168 L 157.687 279.295 L 164.7 279.295 Z " fill="rgb(252,210,13)"/><path d=" M 196.729 157.252 L 198.425 157.252 L 198.425 162.22 L 196.729 162.22 L 196.729 157.252 Z " fill="rgb(252,210,13)"/><path d=" M 114.227 279.295 C 114.227 282.565 111.575 285.219 108.303 285.219 C 105.031 285.219 102.379 282.565 102.379 279.295 C 102.379 276.023 105.031 273.371 108.303 273.371 C 111.575 273.371 114.227 276.023 114.227 279.295 Z " fill="rgb(252,210,13)"/><path d=" M 112.511 279.295 C 112.511 281.619 110.627 283.503 108.303 283.503 C 105.979 283.503 104.095 281.619 104.095 279.295 C 104.095 276.969 105.979 275.085 108.303 275.085 C 110.627 275.085 112.511 276.969 112.511 279.295 Z " fill="rgb(216,36,48)"/><path d=" M 106.916 279.265 C 106.143 279.265 105.516 278.639 105.516 277.865 C 105.516 277.092 106.143 276.467 106.916 276.467 C 107.688 276.467 108.315 277.092 108.315 277.865 C 108.315 278.639 107.688 279.265 106.916 279.265 Z " fill="rgb(224,50,66)"/><path d=" M 192.057 279.295 C 192.057 282.565 189.405 285.219 186.133 285.219 C 182.861 285.219 180.209 282.565 180.209 279.295 C 180.209 276.023 182.861 273.371 186.133 273.371 C 189.405 273.371 192.057 276.023 192.057 279.295 Z " fill="rgb(252,210,13)"/><path d=" M 190.341 279.295 C 190.341 281.619 188.457 283.503 186.133 283.503 C 183.809 283.503 181.925 281.619 181.925 279.295 C 181.925 276.969 183.809 275.085 186.133 275.085 C 188.457 275.085 190.341 276.969 190.341 279.295 Z " fill="rgb(216,36,48)"/><path d=" M 184.747 279.265 C 183.973 279.265 183.347 278.639 183.347 277.865 C 183.347 277.092 183.973 276.467 184.747 276.467 C 185.519 276.467 186.145 277.092 186.145 277.865 C 186.145 278.639 185.519 279.265 184.747 279.265 Z " fill="rgb(224,50,66)"/><path d=" M 157.817 9.424 C 154.224 8.115 150.457 7.46 146.691 7.46 C 142.924 7.46 139.157 8.115 135.564 9.424 L 128.625 11.952 L 128.625 14.293 L 137.044 14.293 C 137.044 15.397 137.94 16.293 139.044 16.293 L 146.691 16.293 L 154.337 16.293 C 155.443 16.293 156.337 15.397 156.337 14.293 L 164.757 14.293 L 164.757 11.952 L 157.817 9.424 Z " fill="rgb(221,222,219)"/><path d=" M 163.961 11.663 L 157.817 9.424 C 154.224 8.115 150.457 7.46 146.691 7.46 C 142.924 7.46 139.157 8.115 135.564 9.424 L 130.489 11.273 L 130.489 12.293 L 139.016 12.293 L 139.016 12.293 C 139.016 13.612 140.085 14.681 141.405 14.681 L 147.225 14.681 L 147.225 14.681 L 152.28 14.681 C 153.6 14.681 154.669 13.612 154.669 12.293 L 154.669 12.293 L 163.961 12.293 L 163.961 11.663" fill="rgb(51,52,54)"/><path d=" M 155.683 13.237 L 138.239 13.237 L 138.239 12.28 L 155.683 12.28 L 155.683 13.237 Z " fill="rgb(221,222,219)"/><path d=" M 137.171 8.917 L 156.211 8.917 C 154.94 8.528 153.659 8.189 152.36 7.96 L 141.021 7.96 C 139.723 8.189 138.441 8.528 137.171 8.917 Z " fill="rgb(221,222,219)"/><path d=" M 162.612 11.171 L 159.984 10.213 L 133.397 10.213 L 130.769 11.171 L 162.612 11.171 Z " fill="rgb(221,222,219)"/><path d=" M 157.592 111.268 C 157.592 116.949 152.987 121.556 147.305 121.556 C 141.624 121.556 137.019 116.949 137.019 111.268 C 137.019 105.587 141.624 100.981 147.305 100.981 C 152.987 100.981 157.592 105.587 157.592 111.268 Z " fill="rgb(221,222,219)"/><path d=" M 154.613 111.268 C 154.613 115.304 151.341 118.576 147.305 118.576 C 143.269 118.576 139.997 115.304 139.997 111.268 C 139.997 107.232 143.269 103.96 147.305 103.96 C 151.341 103.96 154.613 107.232 154.613 111.268 Z " fill="rgb(216,36,48)"/><path d=" M 144.896 111.217 C 143.555 111.217 142.467 110.129 142.467 108.788 C 142.467 107.445 143.555 106.357 144.896 106.357 C 146.239 106.357 147.327 107.445 147.327 108.788 C 147.327 110.129 146.239 111.217 144.896 111.217 Z " fill="rgb(224,50,66)"/><path d=" M 192.515 5.189 L 101.935 5.189 C 101.071 5.189 100.369 4.488 100.369 3.624 C 100.369 2.759 101.071 2.059 101.935 2.059 L 192.515 2.059 C 193.38 2.059 194.081 2.759 194.081 3.624 C 194.081 4.488 193.38 5.189 192.515 5.189 Z " fill="rgb(206,207,205)"/><path d=" M 175.793 94.904 L 118.793 94.904 C 117.168 94.904 115.849 93.585 115.849 91.96 C 115.849 90.333 117.168 89.015 118.793 89.015 L 175.793 89.015 C 177.42 89.015 178.739 90.333 178.739 91.96 C 178.739 93.585 177.42 94.904 175.793 94.904 Z " fill="rgb(240,54,72)"/><path d=" M 181.169 286.96 L 113.419 286.96 C 112.752 286.96 112.211 286.419 112.211 285.751 C 112.211 285.084 112.752 284.543 113.419 284.543 L 181.169 284.543 C 181.836 284.543 182.377 285.084 182.377 285.751 C 182.377 286.419 181.836 286.96 181.169 286.96 Z " fill="rgb(48,49,51)"/><path d=" M 86.324 88.377 L 86.324 87.821 C 86.324 86.963 87.021 86.267 87.88 86.267 L 101.852 86.267 C 102.711 86.267 103.408 86.963 103.408 87.821 L 103.408 88.377 C 103.408 89.236 102.711 89.933 101.852 89.933 L 87.88 89.933 C 87.021 89.933 86.324 89.236 86.324 88.377 Z " fill="rgb(221,222,219)"/><path d=" M 190.593 88.377 L 190.593 87.821 C 190.593 86.963 191.289 86.267 192.149 86.267 L 206.121 86.267 C 206.98 86.267 207.676 86.963 207.676 87.821 L 207.676 88.377 C 207.676 89.236 206.98 89.933 206.121 89.933 L 192.149 89.933 C 191.289 89.933 190.593 89.236 190.593 88.377 Z " fill="rgb(221,222,219)"/><path d=" M 146.784 84.996 L 115.999 84.996 L 110.623 80.467 L 115.227 75.863 L 155.919 75.863 L 146.784 84.996 Z " fill="rgb(66,191,176)"/><path d=" M 177.503 84.996 L 157.157 84.996 L 166.291 75.863 L 186.636 75.863 L 177.503 84.996 Z " fill="rgb(66,191,176)"/><path d=" M 103.793 130.44 L 103.793 117.783 L 111.293 110.283 L 111.293 122.94 L 103.793 130.44 Z " fill="rgb(66,191,176)"/><path d=" M 111.293 88.1 L 106.556 83.253 L 106.556 83.253 L 111.293 88.1 Z " fill="rgb(224,50,66)"/><path d=" M 103.793 111.329 L 103.793 86.015 L 106.556 83.253 L 111.293 88.1 L 111.293 103.829 L 103.793 111.329" fill="rgb(66,191,176)"/><line x1="190.183" y1="127.073" x2="190.183" y2="114.416"/><path d=" M 186.796 130.461 L 182.683 130.461 L 182.683 121.916 L 190.183 114.416 L 190.183 127.073 L 186.796 130.461" fill="rgb(66,191,176)"/><path d=" M 190.183 107.964 L 190.183 82.648 L 190.183 107.963" fill="rgb(224,50,66)"/><path d=" M 182.683 115.463 L 182.683 90.148 L 190.183 82.648 L 190.183 107.964 L 182.683 115.463 Z " fill="rgb(66,191,176)"/></g></g></svg>