<?xml version="1.0" encoding="UTF-8" standalone="no"?><!-- Generator: Gravit.io --><svg xmlns="http://www.w3.org/2000/svg" xmlns:xlink="http://www.w3.org/1999/xlink" style="isolation:isolate" viewBox="62.757 82.547 541.61 464.477" width="541.61pt" height="464.477pt"><defs><clipPath id="_clipPath_1oVtcwHZB2smRCuU72Cp3BHmxcXliaw4"><rect x="62.757" y="82.547" width="541.61" height="464.477"/></clipPath></defs><g clip-path="url(#_clipPath_1oVtcwHZB2smRCuU72Cp3BHmxcXliaw4)"><path d=" M 130.225 477.351 C 114.403 459.556 117.523 431.293 117.556 431.009 L 117.538 431.156 L 71.267 425.088 C 70.615 430.059 65.741 474.616 94.971 507.929 C 113.883 529.483 141.657 540.41 177.525 540.41 L 333.796 540.41 L 333.796 493.744 L 177.525 493.744 C 155.812 493.744 139.899 488.229 130.225 477.351" fill="rgb(249,174,38)"/><path d=" M 193.073 517.429 C 157.205 517.429 129.431 506.501 110.52 484.948 C 94.082 466.213 88.429 443.923 86.746 427.119 L 71.267 425.088 C 70.615 430.059 65.741 474.616 94.971 507.929 C 113.883 529.483 141.657 540.41 177.525 540.41 L 333.796 540.41 L 333.796 517.429 L 193.073 517.429 Z " fill="rgb(246,139,46)"/><path d=" M 123.436 446.347 L 63.784 446.347 L 63.784 425.088 L 123.436 425.088 L 123.436 446.347 Z " fill="rgb(244,111,52)"/><path d=" M 77.146 436.449 C 77.146 438.424 75.544 440.024 73.57 440.024 C 71.596 440.024 69.996 438.424 69.996 436.449 C 69.996 434.475 71.596 432.875 73.57 432.875 C 75.544 432.875 77.146 434.475 77.146 436.449 Z " fill="rgb(249,174,38)"/><path d=" M 116.663 436.449 C 116.663 438.424 115.063 440.024 113.087 440.024 C 111.114 440.024 109.513 438.424 109.513 436.449 C 109.513 434.475 111.114 432.875 113.087 432.875 C 115.063 432.875 116.663 434.475 116.663 436.449 Z " fill="rgb(249,174,38)"/><path d=" M 96.904 436.449 C 96.904 438.424 95.304 440.024 93.33 440.024 C 91.356 440.024 89.754 438.424 89.754 436.449 C 89.754 434.475 91.356 432.875 93.33 432.875 C 95.304 432.875 96.904 434.475 96.904 436.449 Z " fill="rgb(249,174,38)"/><path d=" M 333.796 487.372 L 333.796 547.024 L 312.536 547.024 L 312.536 487.372 L 333.796 487.372 Z " fill="rgb(244,111,52)"/><path d=" M 323.899 533.664 C 325.872 533.664 327.475 535.264 327.475 537.239 C 327.475 539.212 325.872 540.814 323.899 540.814 C 321.924 540.814 320.324 539.212 320.324 537.239 C 320.324 535.264 321.924 533.664 323.899 533.664 Z " fill="rgb(249,174,38)"/><path d=" M 323.899 494.147 C 325.872 494.147 327.475 495.747 327.475 497.721 C 327.475 499.695 325.872 501.295 323.899 501.295 C 321.924 501.295 320.324 499.695 320.324 497.721 C 320.324 495.747 321.924 494.147 323.899 494.147 Z " fill="rgb(249,174,38)"/><path d=" M 323.899 513.905 C 325.872 513.905 327.475 515.505 327.475 517.48 C 327.475 519.455 325.872 521.055 323.899 521.055 C 321.924 521.055 320.324 519.455 320.324 517.48 C 320.324 515.505 321.924 513.905 323.899 513.905 Z " fill="rgb(249,174,38)"/><path d=" M 200.857 135.008 L 265.907 135.008 L 265.907 196.255 L 312.573 196.255 L 312.573 135.008 L 377.623 135.008 L 377.623 88.341 L 200.857 88.341 L 200.857 135.008" fill="rgb(249,174,38)"/><path d=" M 200.857 112.601 L 289.24 112.373 L 265.907 135.008 L 200.857 135.008 L 200.857 112.601" fill="rgb(246,139,46)"/><path d=" M 377.623 112.601 L 289.24 112.373 L 312.573 135.008 L 377.623 135.008 L 377.623 112.601 Z " fill="rgb(246,139,46)"/><path d=" M 312.573 135.008 L 289.24 112.373 L 288.959 186.357 L 312.292 186.357 L 312.573 135.008" fill="rgb(246,139,46)"/><path d=" M 222.116 82.547 L 222.116 142.2 L 200.857 142.2 L 200.857 82.547 L 222.116 82.547 Z " fill="rgb(244,111,52)"/><path d=" M 212.219 128.839 C 214.193 128.839 215.793 130.439 215.793 132.415 C 215.793 134.388 214.193 135.988 212.219 135.988 C 210.244 135.988 208.643 134.388 208.643 132.415 C 208.643 130.439 210.244 128.839 212.219 128.839 Z " fill="rgb(249,174,38)"/><path d=" M 212.219 89.321 C 214.193 89.321 215.793 90.921 215.793 92.895 C 215.793 94.871 214.193 96.471 212.219 96.471 C 210.244 96.471 208.643 94.871 208.643 92.895 C 208.643 90.921 210.244 89.321 212.219 89.321 Z " fill="rgb(249,174,38)"/><path d=" M 212.219 109.081 C 214.193 109.081 215.793 110.681 215.793 112.655 C 215.793 114.628 214.193 116.228 212.219 116.228 C 210.244 116.228 208.643 114.628 208.643 112.655 C 208.643 110.681 210.244 109.081 212.219 109.081 Z " fill="rgb(249,174,38)"/><path d=" M 377.623 82.547 L 377.623 142.2 L 356.364 142.2 L 356.364 82.547 L 377.623 82.547 Z " fill="rgb(244,111,52)"/><path d=" M 367.725 128.839 C 369.699 128.839 371.301 130.439 371.301 132.415 C 371.301 134.388 369.699 135.988 367.725 135.988 C 365.752 135.988 364.151 134.388 364.151 132.415 C 364.151 130.439 365.752 128.839 367.725 128.839 Z " fill="rgb(249,174,38)"/><path d=" M 367.725 89.321 C 369.699 89.321 371.301 90.921 371.301 92.895 C 371.301 94.871 369.699 96.471 367.725 96.471 C 365.752 96.471 364.151 94.871 364.151 92.895 C 364.151 90.921 365.752 89.321 367.725 89.321 Z " fill="rgb(249,174,38)"/><path d=" M 367.725 109.081 C 369.699 109.081 371.301 110.681 371.301 112.655 C 371.301 114.628 369.699 116.228 367.725 116.228 C 365.752 116.228 364.151 114.628 364.151 112.655 C 364.151 110.681 365.752 109.081 367.725 109.081 Z " fill="rgb(249,174,38)"/><path d=" M 319.067 196.255 L 259.413 196.255 L 259.413 174.996 L 319.067 174.996 L 319.067 196.255 Z " fill="rgb(244,111,52)"/><path d=" M 272.775 186.357 C 272.775 188.332 271.175 189.932 269.199 189.932 C 267.225 189.932 265.625 188.332 265.625 186.357 C 265.625 184.384 267.225 182.783 269.199 182.783 C 271.175 182.783 272.775 184.384 272.775 186.357 Z " fill="rgb(249,174,38)"/><path d=" M 312.292 186.357 C 312.292 188.332 310.692 189.932 308.717 189.932 C 306.743 189.932 305.143 188.332 305.143 186.357 C 305.143 184.384 306.743 182.783 308.717 182.783 C 310.692 182.783 312.292 184.384 312.292 186.357 Z " fill="rgb(249,174,38)"/><path d=" M 292.532 186.357 C 292.532 188.332 290.932 189.932 288.959 189.932 C 286.984 189.932 285.384 188.332 285.384 186.357 C 285.384 184.384 286.984 182.783 288.959 182.783 C 290.932 182.783 292.532 184.384 292.532 186.357 Z " fill="rgb(249,174,38)"/><path d=" M 224.223 444.413 L 270.889 444.413 L 270.889 383.132 L 332.171 383.132 L 332.171 336.465 L 270.889 336.465 L 270.889 275.184 L 224.223 275.184 L 224.223 336.465 L 162.941 336.465 L 162.941 383.132 L 224.223 383.132 L 224.223 444.413 Z " fill="rgb(249,174,38)"/><path d=" M 223.941 336.465 L 247.275 359.799 L 247.556 275.184 L 224.223 275.184 L 223.941 336.465 Z " fill="rgb(246,139,46)"/><path d=" M 277.383 296.807 L 217.729 296.807 L 217.729 275.549 L 277.383 275.549 L 277.383 296.807 Z " fill="rgb(244,111,52)"/><path d=" M 231.091 286.911 C 231.091 288.885 229.491 290.485 227.516 290.485 C 225.541 290.485 223.941 288.885 223.941 286.911 C 223.941 284.936 225.541 283.336 227.516 283.336 C 229.491 283.336 231.091 284.936 231.091 286.911 Z " fill="rgb(249,174,38)"/><path d=" M 270.608 286.911 C 270.608 288.885 269.008 290.485 267.033 290.485 C 265.059 290.485 263.459 288.885 263.459 286.911 C 263.459 284.936 265.059 283.336 267.033 283.336 C 269.008 283.336 270.608 284.936 270.608 286.911 Z " fill="rgb(249,174,38)"/><path d=" M 250.849 286.911 C 250.849 288.885 249.249 290.485 247.275 290.485 C 245.301 290.485 243.7 288.885 243.7 286.911 C 243.7 284.936 245.301 283.336 247.275 283.336 C 249.249 283.336 250.849 284.936 250.849 286.911 Z " fill="rgb(249,174,38)"/><path d=" M 224.223 383.413 L 247.556 360.08 L 162.941 359.799 L 162.941 383.132 L 224.223 383.413 Z " fill="rgb(246,139,46)"/><path d=" M 271.171 383.132 L 247.837 359.799 L 247.556 444.413 L 270.889 444.413 L 271.171 383.132 Z " fill="rgb(246,139,46)"/><path d=" M 270.889 336.184 L 247.556 359.517 L 332.171 359.799 L 332.171 336.465 L 270.889 336.184 Z " fill="rgb(246,139,46)"/><path d=" M 310.912 389.625 L 310.912 329.972 L 332.171 329.972 L 332.171 389.625 L 310.912 389.625 Z " fill="rgb(244,111,52)"/><path d=" M 320.809 343.335 C 318.835 343.335 317.235 341.733 317.235 339.759 C 317.235 337.785 318.835 336.184 320.809 336.184 C 322.784 336.184 324.384 337.785 324.384 339.759 C 324.384 341.733 322.784 343.335 320.809 343.335 Z " fill="rgb(249,174,38)"/><path d=" M 320.809 382.851 C 318.835 382.851 317.235 381.251 317.235 379.276 C 317.235 377.301 318.835 375.701 320.809 375.701 C 322.784 375.701 324.384 377.301 324.384 379.276 C 324.384 381.251 322.784 382.851 320.809 382.851 Z " fill="rgb(249,174,38)"/><path d=" M 320.809 363.092 C 318.835 363.092 317.235 361.492 317.235 359.517 C 317.235 357.543 318.835 355.943 320.809 355.943 C 322.784 355.943 324.384 357.543 324.384 359.517 C 324.384 361.492 322.784 363.092 320.809 363.092 Z " fill="rgb(249,174,38)"/><path d=" M 162.941 389.625 L 162.941 329.972 L 184.2 329.972 L 184.2 389.625 L 162.941 389.625 Z " fill="rgb(244,111,52)"/><path d=" M 172.839 343.335 C 170.864 343.335 169.263 341.733 169.263 339.759 C 169.263 337.785 170.864 336.184 172.839 336.184 C 174.812 336.184 176.413 337.785 176.413 339.759 C 176.413 341.733 174.812 343.335 172.839 343.335 Z " fill="rgb(249,174,38)"/><path d=" M 172.839 382.851 C 170.864 382.851 169.263 381.251 169.263 379.276 C 169.263 377.301 170.864 375.701 172.839 375.701 C 174.812 375.701 176.413 377.301 176.413 379.276 C 176.413 381.251 174.812 382.851 172.839 382.851 Z " fill="rgb(249,174,38)"/><path d=" M 172.839 363.092 C 170.864 363.092 169.263 361.492 169.263 359.517 C 169.263 357.543 170.864 355.943 172.839 355.943 C 174.812 355.943 176.413 357.543 176.413 359.517 C 176.413 361.492 174.812 363.092 172.839 363.092 Z " fill="rgb(249,174,38)"/><path d=" M 277.383 444.413 L 217.729 444.413 L 217.729 423.155 L 277.383 423.155 L 277.383 444.413 Z " fill="rgb(244,111,52)"/><path d=" M 231.091 434.517 C 231.091 436.491 229.491 438.091 227.516 438.091 C 225.541 438.091 223.941 436.491 223.941 434.517 C 223.941 432.543 225.541 430.941 227.516 430.941 C 229.491 430.941 231.091 432.543 231.091 434.517 Z " fill="rgb(249,174,38)"/><path d=" M 270.608 434.517 C 270.608 436.491 269.008 438.091 267.033 438.091 C 265.059 438.091 263.459 436.491 263.459 434.517 C 263.459 432.543 265.059 430.941 267.033 430.941 C 269.008 430.941 270.608 432.543 270.608 434.517 Z " fill="rgb(249,174,38)"/><path d=" M 250.849 434.517 C 250.849 436.491 249.249 438.091 247.275 438.091 C 245.301 438.091 243.7 436.491 243.7 434.517 C 243.7 432.543 245.301 430.941 247.275 430.941 C 249.249 430.941 250.849 432.543 250.849 434.517 Z " fill="rgb(249,174,38)"/><path d=" M 488.356 88.341 L 450.165 88.341 L 450.165 135.008 L 488.356 135.008 C 522.008 135.008 549.387 162.387 549.387 196.039 L 549.387 234.171 L 596.053 234.171 L 596.053 196.039 C 596.053 136.653 547.741 88.341 488.356 88.341" fill="rgb(249,174,38)"/><path d=" M 488.356 88.341 L 450.165 88.341 L 450.165 109.033 L 467.661 109.033 C 535.904 109.033 575.36 138.631 575.36 216.732 L 575.36 234.171 L 596.053 234.171 L 596.053 196.039 C 596.053 136.653 547.741 88.341 488.356 88.341" fill="rgb(246,139,46)"/><path d=" M 471.424 82.828 L 471.424 142.481 L 450.165 142.481 L 450.165 82.828 L 471.424 82.828 Z " fill="rgb(244,111,52)"/><path d=" M 461.528 129.12 C 463.501 129.12 465.101 130.72 465.101 132.693 C 465.101 134.669 463.501 136.269 461.528 136.269 C 459.552 136.269 457.952 134.669 457.952 132.693 C 457.952 130.72 459.552 129.12 461.528 129.12 Z " fill="rgb(249,174,38)"/><path d=" M 461.528 89.603 C 463.501 89.603 465.101 91.203 465.101 93.176 C 465.101 95.151 463.501 96.752 461.528 96.752 C 459.552 96.752 457.952 95.151 457.952 93.176 C 457.952 91.203 459.552 89.603 461.528 89.603 Z " fill="rgb(249,174,38)"/><path d=" M 461.528 109.36 C 463.501 109.36 465.101 110.961 465.101 112.936 C 465.101 114.909 463.501 116.509 461.528 116.509 C 459.552 116.509 457.952 114.909 457.952 112.936 C 457.952 110.961 459.552 109.36 461.528 109.36 Z " fill="rgb(249,174,38)"/><path d=" M 544.715 212.911 L 604.367 212.911 L 604.367 234.171 L 544.715 234.171 L 544.715 212.911 Z " fill="rgb(244,111,52)"/><path d=" M 591.007 222.808 C 591.007 220.835 592.607 219.235 594.581 219.235 C 596.555 219.235 598.155 220.835 598.155 222.808 C 598.155 224.783 596.555 226.383 594.581 226.383 C 592.607 226.383 591.007 224.783 591.007 222.808 Z " fill="rgb(249,174,38)"/><path d=" M 551.488 222.808 C 551.488 220.835 553.088 219.235 555.064 219.235 C 557.037 219.235 558.639 220.835 558.639 222.808 C 558.639 224.783 557.037 226.383 555.064 226.383 C 553.088 226.383 551.488 224.783 551.488 222.808 Z " fill="rgb(249,174,38)"/><path d=" M 571.248 222.808 C 571.248 220.835 572.848 219.235 574.821 219.235 C 576.797 219.235 578.397 220.835 578.397 222.808 C 578.397 224.783 576.797 226.383 574.821 226.383 C 572.848 226.383 571.248 224.783 571.248 222.808 Z " fill="rgb(249,174,38)"/><path d=" M 549.387 493.744 L 426.579 493.744 L 426.579 540.41 L 596.053 540.41 L 596.053 394.581 L 549.387 394.581 L 549.387 493.744 Z " fill="rgb(249,174,38)"/><path d=" M 572.967 512.083 L 426.579 512.083 L 426.579 493.744 L 549.387 493.744 L 572.967 512.083 Z " fill="rgb(246,139,46)"/><path d=" M 572.967 404.477 L 572.967 512.083 L 596.053 540.41 L 596.3 404.477 L 572.967 404.477 Z " fill="rgb(246,139,46)"/><path d=" M 542.859 394.581 L 602.511 394.581 L 602.511 415.84 L 542.859 415.84 L 542.859 394.581 Z " fill="rgb(244,111,52)"/><path d=" M 589.149 404.477 C 589.149 402.504 590.751 400.904 592.724 400.904 C 594.697 400.904 596.3 402.504 596.3 404.477 C 596.3 406.453 594.697 408.053 592.724 408.053 C 590.751 408.053 589.149 406.453 589.149 404.477 Z " fill="rgb(249,174,38)"/><path d=" M 549.633 404.477 C 549.633 402.504 551.233 400.904 553.207 400.904 C 555.181 400.904 556.781 402.504 556.781 404.477 C 556.781 406.453 555.181 408.053 553.207 408.053 C 551.233 408.053 549.633 406.453 549.633 404.477 Z " fill="rgb(249,174,38)"/><path d=" M 569.391 404.477 C 569.391 402.504 570.991 400.904 572.967 400.904 C 574.94 400.904 576.54 402.504 576.54 404.477 C 576.54 406.453 574.94 408.053 572.967 408.053 C 570.991 408.053 569.391 406.453 569.391 404.477 Z " fill="rgb(249,174,38)"/><path d=" M 447.837 485.551 L 447.837 545.203 L 426.579 545.203 L 426.579 485.551 L 447.837 485.551 Z " fill="rgb(244,111,52)"/><path d=" M 437.94 531.843 C 439.915 531.843 441.515 533.443 441.515 535.416 C 441.515 537.392 439.915 538.992 437.94 538.992 C 435.965 538.992 434.364 537.392 434.364 535.416 C 434.364 533.443 435.965 531.843 437.94 531.843 Z " fill="rgb(249,174,38)"/><path d=" M 437.94 492.325 C 439.915 492.325 441.515 493.925 441.515 495.9 C 441.515 497.873 439.915 499.475 437.94 499.475 C 435.965 499.475 434.364 497.873 434.364 495.9 C 434.364 493.925 435.965 492.325 437.94 492.325 Z " fill="rgb(249,174,38)"/><path d=" M 437.94 512.083 C 439.915 512.083 441.515 513.684 441.515 515.659 C 441.515 517.632 439.915 519.233 437.94 519.233 C 435.965 519.233 434.364 517.632 434.364 515.659 C 434.364 513.684 435.965 512.083 437.94 512.083 Z " fill="rgb(249,174,38)"/><path d=" M 427.267 350.845 L 403.245 349.704 L 403.245 444.413 L 449.912 444.413 L 449.912 394.932 C 462.921 392.035 478.9 385.947 492.035 373.229 C 507.1 358.643 515.064 338.275 515.064 314.327 C 515.064 282.112 498.44 257.328 468.256 244.541 C 461.903 241.851 455.612 239.985 449.912 238.695 L 449.912 190.421 L 403.245 190.421 L 403.245 259.127 L 402.971 282.737 L 426.511 282.461 C 427.528 282.483 439.705 282.868 450.965 287.908 C 463.184 293.377 468.397 301.279 468.397 314.327 C 468.397 325.567 465.56 333.819 459.721 339.557 C 450.067 349.049 433.131 350.919 427.267 350.845" fill="rgb(249,174,38)"/><path d=" M 490.412 315.027 L 515.016 316.615 C 515.032 315.851 515.064 315.096 515.064 314.327 C 515.064 282.112 498.44 257.328 468.256 244.541 C 461.903 241.851 455.612 239.985 449.912 238.695 L 449.912 190.421 L 424.977 190.421 L 425.259 256.555 C 425.259 256.555 490.412 258.053 490.412 315.027" fill="rgb(246,139,46)"/><path d=" M 425.259 444.413 L 449.912 444.413 L 449.912 394.932 L 425.259 377.345 L 425.259 444.413 Z " fill="rgb(246,139,46)"/><path d=" M 456.405 444.413 L 396.752 444.413 L 396.752 423.155 L 456.405 423.155 L 456.405 444.413 Z " fill="rgb(244,111,52)"/><path d=" M 410.113 434.517 C 410.113 436.491 408.513 438.091 406.537 438.091 C 404.564 438.091 402.964 436.491 402.964 434.517 C 402.964 432.543 404.564 430.941 406.537 430.941 C 408.513 430.941 410.113 432.543 410.113 434.517 Z " fill="rgb(249,174,38)"/><path d=" M 449.631 434.517 C 449.631 436.491 448.031 438.091 446.056 438.091 C 444.081 438.091 442.48 436.491 442.48 434.517 C 442.48 432.543 444.081 430.941 446.056 430.941 C 448.031 430.941 449.631 432.543 449.631 434.517 Z " fill="rgb(249,174,38)"/><path d=" M 429.871 434.517 C 429.871 436.491 428.271 438.091 426.297 438.091 C 424.323 438.091 422.723 436.491 422.723 434.517 C 422.723 432.543 424.323 430.941 426.297 430.941 C 428.271 430.941 429.871 432.543 429.871 434.517 Z " fill="rgb(249,174,38)"/><path d=" M 455.087 211.68 L 395.433 211.68 L 395.433 190.421 L 455.087 190.421 L 455.087 211.68 Z " fill="rgb(244,111,52)"/><path d=" M 408.795 201.783 C 408.795 203.757 407.195 205.357 405.22 205.357 C 403.247 205.357 401.644 203.757 401.644 201.783 C 401.644 199.808 403.247 198.208 405.22 198.208 C 407.195 198.208 408.795 199.808 408.795 201.783 Z " fill="rgb(249,174,38)"/><path d=" M 448.311 201.783 C 448.311 203.757 446.711 205.357 444.737 205.357 C 442.763 205.357 441.163 203.757 441.163 201.783 C 441.163 199.808 442.763 198.208 444.737 198.208 C 446.711 198.208 448.311 199.808 448.311 201.783 Z " fill="rgb(249,174,38)"/><path d=" M 428.553 201.783 C 428.553 203.757 426.953 205.357 424.977 205.357 C 423.004 205.357 421.404 203.757 421.404 201.783 C 421.404 199.808 423.004 198.208 424.977 198.208 C 426.953 198.208 428.553 199.808 428.553 201.783 Z " fill="rgb(249,174,38)"/><path d=" M 119.194 88.341 L 72.528 88.341 L 72.528 292.501 L 119.194 292.501 L 119.194 88.341 Z " fill="rgb(249,174,38)"/><path d=" M 119.194 88.341 L 95.861 88.341 L 95.861 292.501 L 119.194 292.501 L 119.194 88.341 Z " fill="rgb(246,139,46)"/><path d=" M 125.969 292.501 L 66.315 292.501 L 66.315 271.241 L 125.969 271.241 L 125.969 292.501" fill="rgb(244,111,52)"/><path d=" M 79.677 282.604 C 79.677 284.577 78.077 286.179 76.102 286.179 C 74.128 286.179 72.528 284.577 72.528 282.604 C 72.528 280.629 74.128 279.028 76.102 279.028 C 78.077 279.028 79.677 280.629 79.677 282.604 Z " fill="rgb(249,174,38)"/><path d=" M 119.194 282.604 C 119.194 284.577 117.594 286.179 115.62 286.179 C 113.645 286.179 112.044 284.577 112.044 282.604 C 112.044 280.629 113.645 279.028 115.62 279.028 C 117.594 279.028 119.194 280.629 119.194 282.604 Z " fill="rgb(249,174,38)"/><path d=" M 99.435 282.604 C 99.435 284.577 97.835 286.179 95.861 286.179 C 93.887 286.179 92.286 284.577 92.286 282.604 C 92.286 280.629 93.887 279.028 95.861 279.028 C 97.835 279.028 99.435 280.629 99.435 282.604 Z " fill="rgb(249,174,38)"/><path d=" M 125.969 109.599 L 66.315 109.599 L 66.315 88.341 L 125.969 88.341 L 125.969 109.599" fill="rgb(244,111,52)"/><path d=" M 79.677 99.701 C 79.677 101.676 78.077 103.277 76.102 103.277 C 74.128 103.277 72.528 101.676 72.528 99.701 C 72.528 97.728 74.128 96.127 76.102 96.127 C 78.077 96.127 79.677 97.728 79.677 99.701 Z " fill="rgb(249,174,38)"/><path d=" M 119.194 99.701 C 119.194 101.676 117.594 103.277 115.62 103.277 C 113.645 103.277 112.044 101.676 112.044 99.701 C 112.044 97.728 113.645 96.127 115.62 96.127 C 117.594 96.127 119.194 97.728 119.194 99.701 Z " fill="rgb(249,174,38)"/><path d=" M 99.435 99.701 C 99.435 101.676 97.835 103.277 95.861 103.277 C 93.887 103.277 92.286 101.676 92.286 99.701 C 92.286 97.728 93.887 96.127 95.861 96.127 C 97.835 96.127 99.435 97.728 99.435 99.701 Z " fill="rgb(249,174,38)"/><path d=" M 129.528 190.42 C 129.528 208.859 114.58 223.805 96.142 223.805 C 77.703 223.805 62.757 208.859 62.757 190.42 C 62.757 171.983 77.703 157.035 96.142 157.035 C 114.58 157.035 129.528 171.983 129.528 190.42 Z " fill="rgb(244,111,52)"/><path d=" M 68.715 190.42 C 68.715 175.273 80.994 162.993 96.142 162.993 C 111.289 162.993 123.569 175.273 123.569 190.42 C 123.569 205.569 111.289 217.848 96.142 217.848 C 80.994 217.848 68.715 205.569 68.715 190.42 Z " fill="rgb(249,174,38)"/><path d=" M 96.142 217.848 C 96.237 217.848 96.328 217.835 96.423 217.833 L 96.423 163.008 C 96.328 163.007 96.237 162.993 96.142 162.993 C 80.994 162.993 68.715 175.273 68.715 190.42 C 68.715 205.569 80.994 217.848 96.142 217.848" fill="rgb(246,139,46)"/><path d=" M 119.434 190.421 C 119.434 203.285 109.005 213.713 96.142 213.713 C 83.278 213.713 72.849 203.285 72.849 190.421 C 72.849 177.557 83.278 167.129 96.141 167.129 C 109.005 167.129 119.434 177.557 119.434 190.421" fill="rgb(255,255,255)"/><path d=" M 101.883 190.421 C 101.883 193.592 99.313 196.163 96.142 196.163 C 92.97 196.163 90.4 193.592 90.4 190.421 C 90.4 187.251 92.97 184.68 96.142 184.68 C 99.313 184.68 101.883 187.251 101.883 190.421 Z " fill="rgb(239,47,54)"/><path d=" M 96.142 191.755 C 95.405 191.755 94.809 191.159 94.809 190.421 L 94.809 173.965 C 94.809 173.229 95.405 172.632 96.142 172.632 C 96.879 172.632 97.475 173.229 97.475 173.965 L 97.475 190.421 C 97.475 191.159 96.879 191.755 96.142 191.755 Z " fill="rgb(239,47,54)"/></g></svg>